<?xml version="1.0" encoding="UTF-8"?>
<svg id="Layer_2" xmlns="http://www.w3.org/2000/svg" viewBox="0 0 310.763 25.415">
  <defs>
    <style>
      .cls-1 {
        fill: #233b75;
      }
    </style>
  </defs>
  <g id="Layer_1-2" data-name="Layer_1">
    <g>
      <path class="cls-1" d="M0,20.104V6.028h2.443v3.745l-.398-.956c.442-.921,1.124-1.638,2.045-2.151.92-.514,1.992-.771,3.213-.771,1.345,0,2.505.332,3.479.996.974.664,1.611,1.669,1.912,3.014l-1.036-.425c.425-1.079,1.168-1.947,2.23-2.603,1.062-.654,2.301-.982,3.718-.982,1.133,0,2.133.222,3.001.664.867.442,1.544,1.115,2.031,2.019.487.902.73,2.045.73,3.426v8.1h-2.549v-7.808c0-1.363-.319-2.391-.956-3.081-.638-.69-1.532-1.035-2.683-1.035-.85,0-1.593.177-2.23.531s-1.129.876-1.474,1.566-.518,1.55-.518,2.576v7.25h-2.55v-7.808c0-1.363-.314-2.391-.942-3.081-.629-.69-1.527-1.035-2.696-1.035-.832,0-1.567.177-2.204.531s-1.133.876-1.487,1.566-.531,1.55-.531,2.576v7.25H0Z"/>
      <path class="cls-1" d="M32.187,20.263c-1.044,0-1.961-.177-2.749-.531-.788-.354-1.394-.845-1.819-1.474-.425-.628-.638-1.341-.638-2.138,0-.761.182-1.451.544-2.071s.956-1.115,1.779-1.487,1.934-.558,3.333-.558h4.461v1.832h-4.355c-1.275,0-2.134.213-2.576.638-.443.425-.664.938-.664,1.54,0,.69.274,1.244.823,1.66s1.31.624,2.284.624c.956,0,1.792-.213,2.509-.638.717-.425,1.235-1.044,1.554-1.858l.504,1.752c-.336.833-.929,1.492-1.779,1.979-.85.487-1.921.73-3.213.73ZM36.808,20.104v-2.975l-.133-.558v-5.072c0-1.079-.314-1.916-.943-2.51-.628-.593-1.571-.89-2.828-.89-.833,0-1.646.138-2.443.412-.796.274-1.47.642-2.018,1.102l-1.062-1.912c.726-.584,1.598-1.031,2.616-1.341s2.085-.465,3.2-.465c1.93,0,3.417.47,4.461,1.407,1.044.939,1.567,2.373,1.567,4.303v8.498h-2.417Z"/>
      <path class="cls-1" d="M49.767,20.263c-1.363,0-2.581-.301-3.651-.902-1.071-.603-1.917-1.443-2.536-2.523-.62-1.079-.93-2.337-.93-3.771s.31-2.687.93-3.758c.62-1.071,1.465-1.908,2.536-2.51,1.071-.602,2.288-.903,3.651-.903,1.186,0,2.257.266,3.213.797s1.722,1.328,2.297,2.39c.575,1.062.863,2.391.863,3.984s-.279,2.921-.836,3.983c-.558,1.062-1.314,1.863-2.271,2.403s-2.045.81-3.267.81ZM49.979,18.032c.885,0,1.687-.203,2.404-.611.717-.406,1.283-.986,1.699-1.739.416-.752.625-1.624.625-2.615,0-1.01-.208-1.882-.625-2.616s-.982-1.306-1.699-1.713c-.717-.407-1.519-.611-2.404-.611-.903,0-1.708.204-2.417.611-.708.407-1.275.979-1.7,1.713s-.637,1.606-.637,2.616c0,.991.212,1.863.637,2.615.425.753.991,1.333,1.7,1.739.708.408,1.514.611,2.417.611ZM54.786,20.104v-3.798l.159-3.267-.266-3.266V.398h2.549v19.705h-2.443Z"/>
      <path class="cls-1" d="M63.337,3.319c-.496,0-.908-.159-1.235-.478-.328-.318-.491-.708-.491-1.169,0-.478.164-.876.491-1.194.327-.319.739-.479,1.235-.479s.907.155,1.235.465.491.695.491,1.155c0,.478-.159.881-.478,1.208-.318.328-.735.491-1.248.491ZM62.062,20.104V6.028h2.55v14.075h-2.55Z"/>
      <path class="cls-1" d="M70.083,20.263c-.496,0-.92-.173-1.274-.518-.354-.346-.531-.783-.531-1.314s.177-.965.531-1.302c.354-.336.779-.504,1.274-.504.478,0,.89.168,1.235.504.345.337.518.771.518,1.302s-.173.969-.518,1.314c-.345.345-.757.518-1.235.518Z"/>
      <path class="cls-1" d="M75.5,20.104V6.028h2.443v3.824l-.239-.956c.389-.974,1.044-1.717,1.965-2.23s2.054-.771,3.399-.771v2.47c-.106-.018-.208-.026-.306-.026h-.279c-1.363,0-2.443.407-3.24,1.222s-1.195,1.992-1.195,3.532v7.011h-2.55Z"/>
      <path class="cls-1" d="M92.655,20.263c-1.505,0-2.828-.31-3.97-.93-1.142-.619-2.027-1.469-2.656-2.549s-.943-2.319-.943-3.718.306-2.639.917-3.719c.611-1.079,1.451-1.925,2.523-2.536,1.071-.61,2.279-.916,3.625-.916,1.363,0,2.567.302,3.611.903s1.863,1.447,2.457,2.536.89,2.359.89,3.811c0,.106-.004.23-.013.372-.009.142-.022.274-.04.398h-11.977v-1.833h10.649l-1.036.638c.018-.903-.168-1.708-.558-2.417-.39-.708-.925-1.261-1.607-1.659s-1.474-.598-2.376-.598c-.886,0-1.673.199-2.364.598s-1.231.956-1.62,1.673c-.39.717-.584,1.536-.584,2.456v.426c0,.938.216,1.774.65,2.509.434.735,1.04,1.307,1.819,1.713.779.408,1.673.611,2.682.611.832,0,1.589-.142,2.271-.425s1.279-.708,1.792-1.275l1.408,1.646c-.637.744-1.43,1.311-2.377,1.7s-2.005.584-3.173.584Z"/>
      <path class="cls-1" d="M102.64,20.104V6.028h2.443v3.798l-.398-1.009c.46-.921,1.168-1.638,2.125-2.151s2.072-.771,3.346-.771c1.151,0,2.165.222,3.041.664.876.442,1.562,1.115,2.058,2.019.495.902.744,2.045.744,3.426v8.1h-2.55v-7.808c0-1.363-.332-2.391-.996-3.081-.664-.69-1.598-1.035-2.802-1.035-.903,0-1.691.177-2.364.531s-1.191.876-1.553,1.566c-.363.69-.544,1.55-.544,2.576v7.25h-2.55Z"/>
      <path class="cls-1" d="M126.993,20.263c-1.505,0-2.828-.31-3.97-.93-1.142-.619-2.027-1.469-2.656-2.549s-.943-2.319-.943-3.718.306-2.639.917-3.719c.611-1.079,1.451-1.925,2.523-2.536,1.071-.61,2.279-.916,3.625-.916,1.363,0,2.567.302,3.611.903s1.863,1.447,2.457,2.536.89,2.359.89,3.811c0,.106-.004.23-.013.372-.009.142-.022.274-.04.398h-11.977v-1.833h10.649l-1.036.638c.018-.903-.168-1.708-.558-2.417-.39-.708-.925-1.261-1.607-1.659s-1.474-.598-2.376-.598c-.886,0-1.673.199-2.364.598s-1.231.956-1.62,1.673c-.39.717-.584,1.536-.584,2.456v.426c0,.938.216,1.774.65,2.509.434.735,1.04,1.307,1.819,1.713.779.408,1.673.611,2.682.611.832,0,1.589-.142,2.271-.425s1.279-.708,1.792-1.275l1.408,1.646c-.637.744-1.43,1.311-2.377,1.7s-2.005.584-3.173.584Z"/>
      <path class="cls-1" d="M139.953,20.104l-5.232-14.075h2.417l4.647,12.747h-1.142l4.833-12.747h2.151l4.727,12.747h-1.115l4.753-12.747h2.284l-5.258,14.075h-2.443l-4.435-11.632h.744l-4.488,11.632h-2.443Z"/>
      <path class="cls-1" d="M164.968,20.263c-1.044,0-1.961-.177-2.749-.531-.788-.354-1.394-.845-1.819-1.474-.425-.628-.638-1.341-.638-2.138,0-.761.182-1.451.544-2.071s.956-1.115,1.779-1.487,1.934-.558,3.333-.558h4.461v1.832h-4.355c-1.275,0-2.134.213-2.576.638-.443.425-.664.938-.664,1.54,0,.69.274,1.244.823,1.66s1.31.624,2.284.624c.956,0,1.792-.213,2.509-.638.717-.425,1.235-1.044,1.554-1.858l.504,1.752c-.336.833-.929,1.492-1.779,1.979-.85.487-1.921.73-3.213.73ZM169.589,20.104v-2.975l-.133-.558v-5.072c0-1.079-.314-1.916-.943-2.51-.628-.593-1.571-.89-2.828-.89-.833,0-1.646.138-2.443.412-.796.274-1.47.642-2.018,1.102l-1.062-1.912c.726-.584,1.598-1.031,2.616-1.341s2.085-.465,3.2-.465c1.93,0,3.417.47,4.461,1.407,1.044.939,1.567,2.373,1.567,4.303v8.498h-2.417Z"/>
      <path class="cls-1" d="M176.733,20.104V.398h2.55v9.375l-.266,3.266.159,3.267v3.798h-2.443ZM184.195,20.263c-1.204,0-2.288-.27-3.253-.81-.965-.54-1.726-1.342-2.284-2.403-.558-1.062-.836-2.391-.836-3.983s.288-2.922.863-3.984c.575-1.062,1.345-1.858,2.311-2.39.964-.531,2.031-.797,3.2-.797,1.381,0,2.603.302,3.665.903,1.062.602,1.903,1.438,2.523,2.51.62,1.071.929,2.323.929,3.758s-.31,2.691-.929,3.771c-.62,1.08-1.461,1.921-2.523,2.523-1.062.602-2.284.902-3.665.902ZM183.983,18.032c.903,0,1.713-.203,2.43-.611.717-.406,1.283-.986,1.7-1.739.416-.752.624-1.624.624-2.615,0-1.01-.208-1.882-.624-2.616-.417-.734-.983-1.306-1.7-1.713-.717-.407-1.527-.611-2.43-.611-.885,0-1.686.204-2.403.611-.717.407-1.284.979-1.7,1.713s-.624,1.606-.624,2.616c0,.991.208,1.863.624,2.615.416.753.983,1.333,1.7,1.739.717.408,1.518.611,2.403.611Z"/>
      <path class="cls-1" d="M194.844,20.104V.398h2.55v19.705h-2.55Z"/>
      <path class="cls-1" d="M208.521,20.263c-1.505,0-2.828-.31-3.97-.93-1.142-.619-2.027-1.469-2.656-2.549s-.943-2.319-.943-3.718.306-2.639.917-3.719c.611-1.079,1.451-1.925,2.523-2.536,1.071-.61,2.279-.916,3.625-.916,1.363,0,2.567.302,3.611.903s1.863,1.447,2.457,2.536.89,2.359.89,3.811c0,.106-.004.23-.013.372-.009.142-.022.274-.04.398h-11.977v-1.833h10.649l-1.036.638c.018-.903-.168-1.708-.558-2.417-.39-.708-.925-1.261-1.607-1.659s-1.474-.598-2.376-.598c-.886,0-1.673.199-2.364.598s-1.231.956-1.62,1.673c-.39.717-.584,1.536-.584,2.456v.426c0,.938.216,1.774.65,2.509.434.735,1.04,1.307,1.819,1.713.779.408,1.673.611,2.682.611.832,0,1.589-.142,2.271-.425s1.279-.708,1.792-1.275l1.408,1.646c-.637.744-1.43,1.311-2.377,1.7s-2.005.584-3.173.584Z"/>
      <path class="cls-1" d="M224.773,20.263c-1.505,0-2.828-.31-3.97-.93-1.142-.619-2.027-1.469-2.656-2.549s-.943-2.319-.943-3.718.306-2.639.917-3.719c.611-1.079,1.451-1.925,2.523-2.536,1.071-.61,2.279-.916,3.625-.916,1.363,0,2.567.302,3.611.903s1.863,1.447,2.457,2.536.89,2.359.89,3.811c0,.106-.004.23-.013.372-.009.142-.022.274-.04.398h-11.977v-1.833h10.649l-1.036.638c.018-.903-.168-1.708-.558-2.417-.39-.708-.925-1.261-1.607-1.659s-1.474-.598-2.376-.598c-.886,0-1.673.199-2.364.598s-1.231.956-1.62,1.673c-.39.717-.584,1.536-.584,2.456v.426c0,.938.216,1.774.65,2.509.434.735,1.04,1.307,1.819,1.713.779.408,1.673.611,2.682.611.832,0,1.589-.142,2.271-.425s1.279-.708,1.792-1.275l1.408,1.646c-.637.744-1.43,1.311-2.377,1.7s-2.005.584-3.173.584Z"/>
      <path class="cls-1" d="M234.759,20.104V6.028h2.443v3.798l-.398-1.009c.46-.921,1.168-1.638,2.125-2.151s2.072-.771,3.346-.771c1.151,0,2.165.222,3.041.664.876.442,1.562,1.115,2.058,2.019.495.902.744,2.045.744,3.426v8.1h-2.55v-7.808c0-1.363-.332-2.391-.996-3.081-.664-.69-1.598-1.035-2.802-1.035-.903,0-1.691.177-2.364.531s-1.191.876-1.553,1.566c-.363.69-.544,1.55-.544,2.576v7.25h-2.55Z"/>
      <path class="cls-1" d="M259.111,20.263c-1.505,0-2.828-.31-3.97-.93-1.142-.619-2.027-1.469-2.656-2.549s-.943-2.319-.943-3.718.306-2.639.917-3.719c.611-1.079,1.451-1.925,2.523-2.536,1.071-.61,2.279-.916,3.625-.916,1.363,0,2.567.302,3.611.903s1.863,1.447,2.457,2.536.89,2.359.89,3.811c0,.106-.004.23-.013.372-.009.142-.022.274-.04.398h-11.977v-1.833h10.649l-1.036.638c.018-.903-.168-1.708-.558-2.417-.39-.708-.925-1.261-1.607-1.659s-1.474-.598-2.376-.598c-.886,0-1.673.199-2.364.598s-1.231.956-1.62,1.673c-.39.717-.584,1.536-.584,2.456v.426c0,.938.216,1.774.65,2.509.434.735,1.04,1.307,1.819,1.713.779.408,1.673.611,2.682.611.832,0,1.589-.142,2.271-.425s1.279-.708,1.792-1.275l1.408,1.646c-.637.744-1.43,1.311-2.377,1.7s-2.005.584-3.173.584Z"/>
      <path class="cls-1" d="M269.097,20.104V6.028h2.443v3.824l-.239-.956c.389-.974,1.044-1.717,1.965-2.23s2.054-.771,3.399-.771v2.47c-.106-.018-.208-.026-.306-.026h-.279c-1.363,0-2.443.407-3.24,1.222s-1.195,1.992-1.195,3.532v7.011h-2.55Z"/>
      <path class="cls-1" d="M285.827,19.52c-1.364,0-2.581-.288-3.652-.863s-1.921-1.376-2.549-2.403c-.628-1.026-.943-2.213-.943-3.559,0-1.363.314-2.554.943-3.572.628-1.018,1.478-1.81,2.549-2.377,1.071-.566,2.288-.85,3.652-.85,1.204,0,2.301.244,3.293.73.991.487,1.783,1.235,2.377,2.244.593,1.009.89,2.284.89,3.824,0,1.522-.297,2.788-.89,3.798-.594,1.009-1.386,1.766-2.377,2.271-.992.504-2.089.757-3.293.757ZM286.146,25.415c-1.292,0-2.545-.182-3.758-.545-1.213-.362-2.2-.881-2.961-1.554l1.222-1.965c.655.566,1.46,1.014,2.417,1.341.956.328,1.956.492,3.001.492,1.664,0,2.886-.39,3.665-1.169.779-.779,1.168-1.965,1.168-3.559v-2.975l.266-2.788-.133-2.815v-3.851h2.417v12.163c0,2.479-.62,4.302-1.859,5.471-1.239,1.169-3.054,1.753-5.444,1.753ZM286.119,17.288c.938,0,1.77-.194,2.496-.584.726-.389,1.297-.93,1.713-1.62.416-.69.624-1.487.624-2.39s-.208-1.7-.624-2.391c-.417-.69-.987-1.226-1.713-1.606-.726-.38-1.558-.571-2.496-.571s-1.775.191-2.51.571c-.735.381-1.31.916-1.726,1.606s-.624,1.487-.624,2.391.208,1.699.624,2.39.991,1.231,1.726,1.62c.734.39,1.571.584,2.51.584Z"/>
      <path class="cls-1" d="M298.919,25.415c-.673,0-1.328-.111-1.965-.332-.638-.222-1.186-.545-1.647-.97l1.089-1.912c.354.337.744.594,1.168.771.425.177.876.266,1.354.266.62,0,1.133-.159,1.541-.479.407-.318.788-.885,1.142-1.699l.876-1.938.266-.319,5.524-12.773h2.496l-6.825,15.482c-.408.991-.863,1.771-1.368,2.337-.505.566-1.058.97-1.66,1.209-.602.238-1.266.358-1.992.358ZM302.265,20.555l-6.427-14.526h2.656l5.471,12.535-1.7,1.991Z"/>
    </g>
  </g>
</svg>