<?xml version="1.0" encoding="UTF-8"?>
<svg id="Layer_2" xmlns="http://www.w3.org/2000/svg" viewBox="0 0 397.087 22.564">
  <defs>
    <style>
      .cls-1 {
        fill: #233b75;
      }
    </style>
  </defs>
  <g id="Layer_1-2" data-name="Layer_1">
    <g>
      <path class="cls-1" d="M1.529,2.941c-.439,0-.804-.141-1.094-.424-.291-.282-.435-.627-.435-1.035,0-.423.145-.776.435-1.059.29-.282.655-.424,1.094-.424s.804.138,1.094.412c.29.274.435.616.435,1.023,0,.424-.141.78-.423,1.07-.283.291-.651.436-1.106.436ZM.4,17.812V5.342h2.259v12.47H.4Z"/>
      <path class="cls-1" d="M6.964,17.812V5.342h2.165v3.364l-.353-.895c.408-.815,1.036-1.45,1.882-1.905.847-.455,1.835-.683,2.965-.683,1.02,0,1.917.196,2.694.588.776.393,1.384.988,1.824,1.789.439.8.659,1.812.659,3.035v7.176h-2.259v-6.917c0-1.208-.294-2.118-.882-2.729-.588-.612-1.416-.918-2.482-.918-.8,0-1.498.157-2.094.471-.597.313-1.055.776-1.376,1.389-.322.611-.482,1.372-.482,2.282v6.423h-2.259Z"/>
      <path class="cls-1" d="M21.199,7.2v-1.858h7.953v1.858h-7.953ZM23.317,17.812V4.235c0-1.224.356-2.2,1.07-2.929.713-.729,1.729-1.095,3.047-1.095.486,0,.953.059,1.4.177.447.117.827.302,1.141.553l-.682,1.718c-.235-.188-.502-.333-.8-.436-.298-.102-.612-.152-.941-.152-.659,0-1.161.185-1.506.553-.345.368-.518.914-.518,1.635v1.671l.047,1.035v10.847h-2.258Z"/>
      <path class="cls-1" d="M36.633,17.953c-1.255,0-2.369-.274-3.341-.824-.973-.549-1.741-1.306-2.306-2.271-.565-.965-.847-2.059-.847-3.282,0-1.238.282-2.337.847-3.294.564-.956,1.333-1.706,2.306-2.247.972-.541,2.086-.812,3.341-.812,1.239,0,2.349.271,3.33.812.98.541,1.749,1.287,2.306,2.235.557.949.835,2.051.835,3.306,0,1.239-.279,2.338-.835,3.294-.557.957-1.326,1.71-2.306,2.259-.98.55-2.09.824-3.33.824ZM36.633,15.977c.8,0,1.518-.181,2.153-.541.635-.361,1.133-.875,1.494-1.542.361-.666.541-1.438.541-2.317,0-.894-.18-1.666-.541-2.317-.361-.65-.859-1.156-1.494-1.518-.635-.36-1.353-.541-2.153-.541s-1.514.181-2.141.541c-.627.361-1.129.867-1.506,1.518-.376.651-.564,1.424-.564,2.317,0,.879.188,1.651.564,2.317.376.667.878,1.181,1.506,1.542.627.36,1.341.541,2.141.541Z"/>
      <path class="cls-1" d="M56.232,22.564c-1.631,0-3.122-.267-4.47-.8-1.349-.534-2.51-1.279-3.482-2.235-.973-.957-1.726-2.09-2.259-3.4-.533-1.31-.8-2.741-.8-4.294s.267-2.979.8-4.282c.533-1.302,1.29-2.431,2.271-3.388s2.153-1.694,3.518-2.212,2.871-.776,4.518-.776c1.615,0,3.09.251,4.423.753,1.333.502,2.49,1.212,3.471,2.13.98.917,1.737,2.008,2.271,3.27.533,1.264.8,2.655.8,4.177,0,1.333-.165,2.479-.494,3.436s-.804,1.697-1.423,2.223c-.62.526-1.376.789-2.271.789-.879,0-1.581-.267-2.106-.801-.526-.532-.788-1.294-.788-2.282v-1.6l.118-1.436-.212-2.705v-3.13h2.047v8.471c0,.627.129,1.066.388,1.317s.577.376.953.376c.455,0,.851-.18,1.188-.541.337-.36.588-.89.753-1.588.165-.697.247-1.533.247-2.506,0-1.317-.224-2.514-.67-3.588-.447-1.074-1.09-2.004-1.929-2.788-.839-.784-1.828-1.385-2.965-1.8-1.137-.416-2.404-.624-3.8-.624s-2.67.224-3.823.671-2.146,1.074-2.977,1.882c-.832.809-1.471,1.769-1.917,2.883-.447,1.113-.67,2.337-.67,3.67,0,1.35.219,2.585.659,3.706.439,1.122,1.07,2.086,1.894,2.894.823.809,1.804,1.436,2.941,1.883s2.404.671,3.8.671c.721,0,1.482-.083,2.282-.247.8-.165,1.553-.428,2.259-.789l.518,1.506c-.722.361-1.537.636-2.447.824-.91.188-1.78.282-2.612.282ZM55.809,17.953c-1.114,0-2.102-.263-2.965-.789-.863-.525-1.545-1.242-2.047-2.152-.502-.909-.753-1.945-.753-3.105,0-1.177.251-2.216.753-3.118.502-.901,1.184-1.607,2.047-2.117s1.851-.765,2.965-.765c1.082,0,2.031.231,2.847.694s1.455,1.141,1.918,2.035c.462.894.694,1.984.694,3.271s-.228,2.376-.682,3.271c-.455.894-1.09,1.58-1.906,2.059-.816.479-1.773.718-2.871.718ZM56.138,16.117c.769,0,1.455-.168,2.059-.506.604-.337,1.082-.823,1.435-1.458.353-.636.529-1.385.529-2.247,0-.879-.176-1.632-.529-2.259-.353-.628-.832-1.106-1.435-1.436-.604-.329-1.291-.494-2.059-.494-.784,0-1.479.169-2.082.506-.604.338-1.075.82-1.412,1.447-.337.627-.506,1.372-.506,2.235,0,.847.168,1.584.506,2.211.337.628.808,1.118,1.412,1.471.604.354,1.298.529,2.082.529Z"/>
      <path class="cls-1" d="M70.562,17.812V5.342h2.165v3.317l-.353-.848c.392-.815.996-1.45,1.812-1.905.815-.455,1.765-.683,2.847-.683,1.192,0,2.22.294,3.083.883.862.588,1.427,1.479,1.694,2.67l-.917-.376c.376-.957,1.035-1.726,1.976-2.306.941-.58,2.039-.871,3.294-.871,1.003,0,1.89.196,2.659.588.768.393,1.368.988,1.8,1.789.431.8.647,1.812.647,3.035v7.176h-2.259v-6.917c0-1.208-.282-2.118-.847-2.729-.564-.612-1.357-.918-2.376-.918-.753,0-1.412.157-1.977.471-.565.313-1,.776-1.306,1.389-.306.611-.459,1.372-.459,2.282v6.423h-2.259v-6.917c0-1.208-.279-2.118-.835-2.729-.557-.612-1.353-.918-2.388-.918-.738,0-1.388.157-1.953.471-.564.313-1.004.776-1.317,1.389-.314.611-.471,1.372-.471,2.282v6.423h-2.259Z"/>
      <path class="cls-1" d="M99.078,17.953c-.926,0-1.737-.157-2.435-.471-.698-.313-1.235-.749-1.612-1.306s-.565-1.188-.565-1.895c0-.674.161-1.286.482-1.835.321-.549.847-.988,1.577-1.317.729-.33,1.713-.494,2.953-.494h3.953v1.623h-3.858c-1.129,0-1.891.188-2.282.564-.393.377-.588.832-.588,1.365,0,.611.243,1.102.729,1.47.486.369,1.161.554,2.023.554.847,0,1.588-.188,2.223-.565.636-.376,1.094-.925,1.376-1.646l.447,1.553c-.298.737-.824,1.321-1.577,1.753s-1.702.647-2.847.647ZM103.172,17.812v-2.635l-.118-.494v-4.494c0-.957-.278-1.698-.835-2.224-.557-.525-1.393-.788-2.506-.788-.737,0-1.459.121-2.165.364-.706.244-1.302.569-1.788.977l-.941-1.694c.643-.518,1.416-.913,2.317-1.188s1.847-.412,2.835-.412c1.709,0,3.027.416,3.953,1.247.925.832,1.388,2.103,1.388,3.812v7.529h-2.141Z"/>
      <path class="cls-1" d="M114.654,17.953c-1.208,0-2.287-.267-3.235-.801-.949-.532-1.698-1.278-2.247-2.234-.549-.957-.823-2.071-.823-3.342s.274-2.38.823-3.329,1.298-1.689,2.247-2.224c.949-.533,2.027-.8,3.235-.8,1.051,0,2,.235,2.847.706.847.471,1.525,1.177,2.035,2.117.51.941.765,2.118.765,3.529s-.247,2.589-.741,3.529c-.494.941-1.165,1.651-2.012,2.13-.847.479-1.812.718-2.894.718ZM114.842,15.977c.784,0,1.494-.181,2.129-.541.635-.361,1.137-.875,1.506-1.542.369-.666.553-1.438.553-2.317,0-.894-.184-1.666-.553-2.317-.369-.65-.871-1.156-1.506-1.518-.635-.36-1.345-.541-2.129-.541-.8,0-1.514.181-2.141.541-.627.361-1.129.867-1.506,1.518-.376.651-.564,1.424-.564,2.317,0,.879.188,1.651.564,2.317.376.667.878,1.181,1.506,1.542.627.36,1.341.541,2.141.541ZM119.101,17.812v-3.364l.141-2.895-.235-2.894V.354h2.259v17.458h-2.165Z"/>
      <path class="cls-1" d="M126.677,2.941c-.439,0-.804-.141-1.094-.424-.291-.282-.435-.627-.435-1.035,0-.423.145-.776.435-1.059.29-.282.655-.424,1.094-.424s.804.138,1.094.412c.29.274.435.616.435,1.023,0,.424-.141.78-.423,1.07-.283.291-.651.436-1.106.436ZM125.547,17.812V5.342h2.259v12.47h-2.259Z"/>
      <path class="cls-1" d="M132.111,17.812V5.342h2.165v3.388l-.212-.847c.345-.863.926-1.521,1.741-1.977s1.819-.683,3.012-.683v2.188c-.094-.016-.185-.023-.271-.023h-.247c-1.208,0-2.165.36-2.871,1.082-.706.722-1.059,1.765-1.059,3.129v6.212h-2.259Z"/>
      <path class="cls-1" d="M147.311,17.953c-1.333,0-2.506-.274-3.518-.824-1.012-.549-1.796-1.302-2.353-2.259-.557-.956-.835-2.055-.835-3.294s.271-2.337.812-3.294c.542-.956,1.286-1.706,2.235-2.247.949-.541,2.02-.812,3.211-.812,1.208,0,2.274.267,3.2.8.925.534,1.65,1.282,2.176,2.247.525.965.788,2.091.788,3.377,0,.094-.004.204-.012.329-.008.126-.02.243-.035.353h-10.611v-1.623h9.435l-.918.564c.016-.8-.149-1.514-.494-2.141-.345-.628-.82-1.118-1.423-1.471-.604-.354-1.306-.529-2.106-.529-.784,0-1.482.176-2.094.529-.612.353-1.09.847-1.436,1.482-.345.635-.518,1.36-.518,2.176v.377c0,.831.192,1.572.577,2.224.384.65.921,1.156,1.612,1.518.69.36,1.482.541,2.376.541.737,0,1.407-.126,2.011-.377s1.133-.627,1.588-1.129l1.247,1.459c-.565.658-1.267,1.16-2.106,1.506-.839.345-1.776.518-2.812.518Z"/>
      <path class="cls-1" d="M156.157,17.812V5.342h2.165v3.364l-.353-.895c.408-.815,1.036-1.45,1.882-1.905.847-.455,1.835-.683,2.965-.683,1.02,0,1.917.196,2.694.588.776.393,1.384.988,1.824,1.789.439.8.659,1.812.659,3.035v7.176h-2.259v-6.917c0-1.208-.294-2.118-.882-2.729-.588-.612-1.416-.918-2.482-.918-.8,0-1.498.157-2.094.471-.597.313-1.055.776-1.376,1.389-.322.611-.482,1.372-.482,2.282v6.423h-2.259Z"/>
      <path class="cls-1" d="M177.733,17.953c-1.333,0-2.506-.274-3.518-.824-1.012-.549-1.796-1.302-2.353-2.259-.557-.956-.835-2.055-.835-3.294s.271-2.337.812-3.294c.542-.956,1.286-1.706,2.235-2.247.949-.541,2.02-.812,3.211-.812,1.208,0,2.274.267,3.2.8.925.534,1.65,1.282,2.176,2.247.525.965.788,2.091.788,3.377,0,.094-.004.204-.012.329-.008.126-.02.243-.035.353h-10.611v-1.623h9.435l-.918.564c.016-.8-.149-1.514-.494-2.141-.345-.628-.82-1.118-1.423-1.471-.604-.354-1.306-.529-2.106-.529-.784,0-1.482.176-2.094.529-.612.353-1.09.847-1.436,1.482-.345.635-.518,1.36-.518,2.176v.377c0,.831.192,1.572.577,2.224.384.65.921,1.156,1.612,1.518.69.36,1.482.541,2.376.541.737,0,1.407-.126,2.011-.377s1.133-.627,1.588-1.129l1.247,1.459c-.565.658-1.267,1.16-2.106,1.506-.839.345-1.776.518-2.812.518Z"/>
      <path class="cls-1" d="M189.215,17.812l-4.635-12.47h2.141l4.118,11.293h-1.012l4.282-11.293h1.906l4.188,11.293h-.988l4.211-11.293h2.024l-4.659,12.47h-2.165l-3.929-10.306h.659l-3.977,10.306h-2.165Z"/>
      <path class="cls-1" d="M211.378,17.953c-.926,0-1.737-.157-2.435-.471-.698-.313-1.235-.749-1.612-1.306s-.565-1.188-.565-1.895c0-.674.161-1.286.482-1.835.321-.549.847-.988,1.577-1.317.729-.33,1.713-.494,2.953-.494h3.953v1.623h-3.858c-1.129,0-1.891.188-2.282.564-.393.377-.588.832-.588,1.365,0,.611.243,1.102.729,1.47.486.369,1.161.554,2.023.554.847,0,1.588-.188,2.223-.565.636-.376,1.094-.925,1.376-1.646l.447,1.553c-.298.737-.824,1.321-1.577,1.753s-1.702.647-2.847.647ZM215.472,17.812v-2.635l-.118-.494v-4.494c0-.957-.278-1.698-.835-2.224-.557-.525-1.393-.788-2.506-.788-.737,0-1.459.121-2.165.364-.706.244-1.302.569-1.788.977l-.941-1.694c.643-.518,1.416-.913,2.317-1.188s1.847-.412,2.835-.412c1.709,0,3.027.416,3.953,1.247.925.832,1.388,2.103,1.388,3.812v7.529h-2.141Z"/>
      <path class="cls-1" d="M221.801,17.812V.354h2.259v8.306l-.235,2.894.141,2.895v3.364h-2.165ZM228.413,17.953c-1.067,0-2.027-.239-2.882-.718-.855-.479-1.53-1.188-2.024-2.13-.494-.94-.741-2.117-.741-3.529s.254-2.588.765-3.529c.509-.94,1.192-1.646,2.047-2.117.854-.471,1.8-.706,2.835-.706,1.224,0,2.306.267,3.247.8.941.534,1.686,1.274,2.235,2.224.549.949.823,2.059.823,3.329s-.274,2.385-.823,3.342c-.549.956-1.294,1.702-2.235,2.234-.941.534-2.023.801-3.247.801ZM228.225,15.977c.8,0,1.518-.181,2.153-.541.635-.361,1.137-.875,1.506-1.542.368-.666.553-1.438.553-2.317,0-.894-.185-1.666-.553-2.317-.369-.65-.871-1.156-1.506-1.518-.635-.36-1.353-.541-2.153-.541-.785,0-1.494.181-2.129.541-.635.361-1.138.867-1.506,1.518-.369.651-.553,1.424-.553,2.317,0,.879.184,1.651.553,2.317.368.667.871,1.181,1.506,1.542.635.36,1.345.541,2.129.541Z"/>
      <path class="cls-1" d="M237.848,17.812V.354h2.259v17.458h-2.259Z"/>
      <path class="cls-1" d="M249.965,17.953c-1.333,0-2.506-.274-3.518-.824-1.012-.549-1.796-1.302-2.353-2.259-.557-.956-.835-2.055-.835-3.294s.271-2.337.812-3.294c.542-.956,1.286-1.706,2.235-2.247.949-.541,2.02-.812,3.211-.812,1.208,0,2.274.267,3.2.8.925.534,1.65,1.282,2.176,2.247.525.965.788,2.091.788,3.377,0,.094-.004.204-.012.329-.008.126-.02.243-.035.353h-10.611v-1.623h9.435l-.918.564c.016-.8-.149-1.514-.494-2.141-.345-.628-.82-1.118-1.423-1.471-.604-.354-1.306-.529-2.106-.529-.784,0-1.482.176-2.094.529-.612.353-1.09.847-1.436,1.482-.345.635-.518,1.36-.518,2.176v.377c0,.831.192,1.572.577,2.224.384.65.921,1.156,1.612,1.518.69.36,1.482.541,2.376.541.737,0,1.407-.126,2.011-.377s1.133-.627,1.588-1.129l1.247,1.459c-.565.658-1.267,1.16-2.106,1.506-.839.345-1.776.518-2.812.518Z"/>
      <path class="cls-1" d="M264.364,17.953c-1.333,0-2.506-.274-3.518-.824-1.012-.549-1.796-1.302-2.353-2.259-.557-.956-.835-2.055-.835-3.294s.271-2.337.812-3.294c.542-.956,1.286-1.706,2.235-2.247.949-.541,2.02-.812,3.211-.812,1.208,0,2.274.267,3.2.8.925.534,1.65,1.282,2.176,2.247.525.965.788,2.091.788,3.377,0,.094-.004.204-.012.329-.008.126-.02.243-.035.353h-10.611v-1.623h9.435l-.918.564c.016-.8-.149-1.514-.494-2.141-.345-.628-.82-1.118-1.423-1.471-.604-.354-1.306-.529-2.106-.529-.784,0-1.482.176-2.094.529-.612.353-1.09.847-1.436,1.482-.345.635-.518,1.36-.518,2.176v.377c0,.831.192,1.572.577,2.224.384.65.921,1.156,1.612,1.518.69.36,1.482.541,2.376.541.737,0,1.407-.126,2.011-.377s1.133-.627,1.588-1.129l1.247,1.459c-.565.658-1.267,1.16-2.106,1.506-.839.345-1.776.518-2.812.518Z"/>
      <path class="cls-1" d="M273.211,17.812V5.342h2.165v3.364l-.353-.895c.408-.815,1.036-1.45,1.882-1.905.847-.455,1.835-.683,2.965-.683,1.02,0,1.917.196,2.694.588.776.393,1.384.988,1.824,1.789.439.8.659,1.812.659,3.035v7.176h-2.259v-6.917c0-1.208-.294-2.118-.882-2.729-.588-.612-1.416-.918-2.482-.918-.8,0-1.498.157-2.094.471-.597.313-1.055.776-1.376,1.389-.322.611-.482,1.372-.482,2.282v6.423h-2.259Z"/>
      <path class="cls-1" d="M294.787,17.953c-1.333,0-2.506-.274-3.518-.824-1.012-.549-1.796-1.302-2.353-2.259-.557-.956-.835-2.055-.835-3.294s.271-2.337.812-3.294c.542-.956,1.286-1.706,2.235-2.247.949-.541,2.02-.812,3.211-.812,1.208,0,2.274.267,3.2.8.925.534,1.65,1.282,2.176,2.247.525.965.788,2.091.788,3.377,0,.094-.004.204-.012.329-.008.126-.02.243-.035.353h-10.611v-1.623h9.435l-.918.564c.016-.8-.149-1.514-.494-2.141-.345-.628-.82-1.118-1.423-1.471-.604-.354-1.306-.529-2.106-.529-.784,0-1.482.176-2.094.529-.612.353-1.09.847-1.436,1.482-.345.635-.518,1.36-.518,2.176v.377c0,.831.192,1.572.577,2.224.384.65.921,1.156,1.612,1.518.69.36,1.482.541,2.376.541.737,0,1.407-.126,2.011-.377s1.133-.627,1.588-1.129l1.247,1.459c-.565.658-1.267,1.16-2.106,1.506-.839.345-1.776.518-2.812.518Z"/>
      <path class="cls-1" d="M303.633,17.812V5.342h2.165v3.388l-.212-.847c.345-.863.926-1.521,1.741-1.977s1.819-.683,3.012-.683v2.188c-.094-.016-.185-.023-.271-.023h-.247c-1.208,0-2.165.36-2.871,1.082-.706.722-1.059,1.765-1.059,3.129v6.212h-2.259Z"/>
      <path class="cls-1" d="M318.456,17.294c-1.208,0-2.286-.255-3.235-.765s-1.702-1.22-2.259-2.13c-.557-.909-.835-1.96-.835-3.152,0-1.208.278-2.263.835-3.165.557-.901,1.31-1.604,2.259-2.105s2.027-.753,3.235-.753c1.066,0,2.039.216,2.917.647s1.58,1.094,2.106,1.988c.525.894.788,2.023.788,3.388,0,1.35-.263,2.471-.788,3.364-.526.895-1.228,1.565-2.106,2.012-.878.447-1.851.671-2.917.671ZM318.738,22.518c-1.145,0-2.255-.161-3.329-.482-1.075-.322-1.949-.78-2.624-1.377l1.083-1.741c.58.502,1.294.898,2.141,1.188.847.29,1.733.436,2.659.436,1.474,0,2.556-.346,3.247-1.035.69-.69,1.036-1.741,1.036-3.153v-2.635l.235-2.471-.117-2.494v-3.411h2.141v10.775c0,2.196-.549,3.812-1.647,4.847-1.098,1.036-2.706,1.554-4.823,1.554ZM318.715,15.317c.831,0,1.568-.172,2.212-.518.643-.345,1.148-.823,1.518-1.436.368-.611.553-1.317.553-2.117s-.185-1.506-.553-2.117c-.369-.612-.875-1.086-1.518-1.424-.644-.337-1.381-.506-2.212-.506s-1.573.169-2.224.506c-.651.338-1.161.812-1.529,1.424-.369.611-.553,1.317-.553,2.117s.184,1.506.553,2.117c.369.612.878,1.091,1.529,1.436.651.346,1.392.518,2.224.518Z"/>
      <path class="cls-1" d="M330.055,22.518c-.596,0-1.176-.099-1.741-.295-.564-.196-1.05-.481-1.458-.858l.965-1.694c.313.298.659.525,1.035.683.376.156.776.235,1.2.235.549,0,1.004-.142,1.365-.424s.698-.784,1.012-1.506l.776-1.717.235-.283,4.894-11.316h2.211l-6.047,13.717c-.361.878-.765,1.568-1.211,2.07-.447.502-.938.859-1.471,1.07-.533.212-1.122.318-1.765.318ZM333.02,18.212l-5.694-12.87h2.353l4.847,11.105-1.506,1.765Z"/>
      <path class="cls-1" d="M343.208,17.953c-.439,0-.815-.153-1.129-.459s-.47-.694-.47-1.165.156-.854.47-1.152.69-.447,1.129-.447c.424,0,.789.149,1.094.447s.459.682.459,1.152-.153.859-.459,1.165-.67.459-1.094.459Z"/>
      <path class="cls-1" d="M353.442,17.953c-1.271,0-2.404-.274-3.4-.824-.996-.549-1.776-1.302-2.341-2.259-.565-.956-.847-2.055-.847-3.294s.282-2.337.847-3.294c.564-.956,1.345-1.706,2.341-2.247s2.129-.812,3.4-.812c1.129,0,2.137.224,3.023.671s1.572,1.109,2.059,1.988l-1.717,1.105c-.408-.611-.906-1.062-1.494-1.353s-1.22-.436-1.894-.436c-.816,0-1.545.181-2.188.541-.644.361-1.153.867-1.53,1.518-.376.651-.564,1.424-.564,2.317s.188,1.671.564,2.33c.376.658.886,1.168,1.53,1.529.643.36,1.372.541,2.188.541.674,0,1.306-.146,1.894-.436s1.086-.741,1.494-1.353l1.717,1.082c-.486.862-1.172,1.525-2.059,1.988s-1.894.694-3.023.694Z"/>
      <path class="cls-1" d="M366.783,17.953c-1.255,0-2.369-.274-3.341-.824-.973-.549-1.741-1.306-2.306-2.271-.565-.965-.847-2.059-.847-3.282,0-1.238.282-2.337.847-3.294.564-.956,1.333-1.706,2.306-2.247.972-.541,2.086-.812,3.341-.812,1.239,0,2.349.271,3.33.812.98.541,1.749,1.287,2.306,2.235.557.949.835,2.051.835,3.306,0,1.239-.279,2.338-.835,3.294-.557.957-1.326,1.71-2.306,2.259-.98.55-2.09.824-3.33.824ZM366.783,15.977c.8,0,1.518-.181,2.153-.541.635-.361,1.133-.875,1.494-1.542.361-.666.541-1.438.541-2.317,0-.894-.18-1.666-.541-2.317-.361-.65-.859-1.156-1.494-1.518-.635-.36-1.353-.541-2.153-.541s-1.514.181-2.141.541c-.627.361-1.129.867-1.506,1.518-.376.651-.564,1.424-.564,2.317,0,.879.188,1.651.564,2.317.376.667.878,1.181,1.506,1.542.627.36,1.341.541,2.141.541Z"/>
      <path class="cls-1" d="M376.382,17.812V5.342h2.165v3.317l-.353-.848c.392-.815.996-1.45,1.812-1.905.815-.455,1.765-.683,2.847-.683,1.192,0,2.22.294,3.083.883.862.588,1.427,1.479,1.694,2.67l-.917-.376c.376-.957,1.035-1.726,1.976-2.306.941-.58,2.039-.871,3.294-.871,1.003,0,1.89.196,2.659.588.768.393,1.368.988,1.8,1.789.431.8.647,1.812.647,3.035v7.176h-2.259v-6.917c0-1.208-.282-2.118-.847-2.729-.564-.612-1.357-.918-2.376-.918-.753,0-1.412.157-1.977.471-.565.313-1,.776-1.306,1.389-.306.611-.459,1.372-.459,2.282v6.423h-2.259v-6.917c0-1.208-.279-2.118-.835-2.729-.557-.612-1.353-.918-2.388-.918-.738,0-1.388.157-1.953.471-.564.313-1.004.776-1.317,1.389-.314.611-.471,1.372-.471,2.282v6.423h-2.259Z"/>
    </g>
  </g>
</svg>