<?xml version="1.0" encoding="UTF-8"?>
<svg id="Layer_2" xmlns="http://www.w3.org/2000/svg" viewBox="0 0 348.917 29.516">
  <defs>
    <style>
      .cls-1 {
        fill: #243a74;
      }
    </style>
  </defs>
  <g id="Layer_1-2" data-name="Layer_1">
    <g>
      <path class="cls-1" d="M26.321,4.184c-1.388-1.333-3.009-2.363-4.864-3.092-1.855-.728-3.882-1.092-6.081-1.092-2.226,0-4.274.371-6.142,1.113-1.869.742-3.49,1.779-4.864,3.112-1.375,1.333-2.447,2.893-3.215,4.678-.77,1.787-1.154,3.738-1.154,5.854s.384,4.068,1.154,5.854c.769,1.786,1.841,3.346,3.215,4.678,1.374,1.334,3.002,2.371,4.885,3.112,1.882.742,3.923,1.113,6.121,1.113s4.225-.363,6.081-1.092c1.855-.728,3.477-1.759,4.864-3.092,1.388-1.333,2.459-2.892,3.215-4.679.756-1.786,1.134-3.751,1.134-5.895s-.378-4.108-1.134-5.895c-.756-1.786-1.828-3.346-3.215-4.679ZM25.703,19.169c-.564,1.347-1.347,2.522-2.35,3.524-1.004,1.004-2.185,1.78-3.545,2.329-1.361.55-2.838.825-4.432.825-1.622,0-3.112-.274-4.473-.825-1.36-.549-2.549-1.326-3.566-2.329-1.017-1.002-1.808-2.177-2.371-3.524-.564-1.346-.845-2.817-.845-4.411s.281-3.064.845-4.411c.563-1.346,1.353-2.521,2.371-3.524,1.016-1.003,2.206-1.779,3.566-2.329s2.851-.825,4.473-.825c1.594,0,3.071.275,4.432.825,1.36.55,2.541,1.326,3.545,2.329,1.003,1.004,1.786,2.178,2.35,3.524.563,1.347.845,2.817.845,4.411s-.282,3.065-.845,4.411Z"/>
      <path class="cls-1" d="M57.136,16.572c0,3.215-.708,5.565-2.123,7.049-1.415,1.484-3.428,2.226-6.039,2.226-2.583,0-4.583-.742-5.998-2.226-1.416-1.484-2.123-3.834-2.123-7.049V.33h-4.122v16.407c0,4.178,1.086,7.352,3.257,9.523,2.17,2.171,5.153,3.256,8.946,3.256,3.819,0,6.808-1.085,8.966-3.256,2.157-2.171,3.236-5.345,3.236-9.523V.33h-3.999v16.242Z"/>
      <path class="cls-1" d="M87.312,19.21c1.786-.797,3.16-1.944,4.122-3.442.962-1.498,1.443-3.291,1.443-5.38s-.481-3.889-1.443-5.4c-.962-1.511-2.336-2.666-4.122-3.463-1.787-.797-3.944-1.196-6.472-1.196h-11.254v28.857h4.122v-8.781h7.132c.634,0,1.245-.025,1.833-.075l6.206,8.856h4.493l-6.86-9.679c.268-.097.546-.184.8-.297ZM80.716,16.901h-7.008V3.916h7.008c2.639,0,4.638.564,5.998,1.69,1.361,1.127,2.041,2.721,2.041,4.782s-.68,3.662-2.041,4.803c-1.36,1.14-3.359,1.71-5.998,1.71Z"/>
      <polygon class="cls-1" points="139.542 23.906 131.586 .33 127.793 .33 119.692 23.799 111.881 .33 107.635 .33 117.281 29.186 121.692 29.186 129.585 6.123 137.439 29.186 141.768 29.186 151.414 .33 147.498 .33 139.542 23.906"/>
      <polygon class="cls-1" points="160.566 16.283 175.036 16.283 175.036 12.779 160.566 12.779 160.566 3.916 176.808 3.916 176.808 .33 156.444 .33 156.444 29.186 177.386 29.186 177.386 25.6 160.566 25.6 160.566 16.283"/>
      <path class="cls-1" d="M204.758,14.716c-.422-.193-.874-.341-1.338-.469.02-.009.041-.016.061-.025,1.181-.577,2.123-1.402,2.824-2.474.7-1.071,1.051-2.391,1.051-3.957,0-2.308-.894-4.129-2.68-5.462-1.786-1.333-4.343-1.999-7.667-1.999h-12.945v28.857h13.769c3.654,0,6.41-.68,8.265-2.04,1.855-1.361,2.783-3.278,2.783-5.751,0-1.649-.371-3.03-1.113-4.142-.742-1.113-1.745-1.958-3.009-2.536ZM196.637,3.669c2.088,0,3.71.385,4.864,1.154,1.154.77,1.732,1.924,1.732,3.463s-.577,2.694-1.732,3.463c-1.154.77-2.776,1.154-4.864,1.154h-8.451V3.669h8.451ZM202.902,24.693c-1.209.769-2.954,1.154-5.235,1.154h-9.482v-9.605h9.482c2.281,0,4.026.385,5.235,1.155,1.209.769,1.814,1.993,1.814,3.669,0,1.649-.605,2.859-1.814,3.628Z"/>
      <path class="cls-1" d="M231.409,15.294c-1.031-.577-2.171-1.044-3.421-1.402-1.251-.357-2.494-.68-3.731-.969-1.237-.289-2.371-.611-3.401-.968s-1.869-.838-2.514-1.443c-.646-.604-.969-1.415-.969-2.432,0-.852.24-1.621.721-2.308.481-.687,1.243-1.237,2.288-1.649,1.044-.412,2.377-.619,3.999-.619,1.291,0,2.624.186,3.999.557,1.374.371,2.679.969,3.916,1.793l1.361-3.298c-1.21-.825-2.639-1.457-4.287-1.897-1.649-.439-3.312-.659-4.988-.659-2.529,0-4.611.378-6.246,1.134-1.636.756-2.844,1.759-3.628,3.009-.783,1.251-1.175,2.618-1.175,4.102,0,1.539.316,2.797.948,3.772.632.976,1.464,1.752,2.494,2.329,1.031.577,2.17,1.051,3.421,1.422,1.25.371,2.494.695,3.731.969,1.237.275,2.371.598,3.401.968s1.869.859,2.514,1.464.969,1.402.969,2.391c0,.852-.247,1.615-.742,2.288-.495.674-1.265,1.203-2.309,1.587-1.044.385-2.405.577-4.081.577-1.841,0-3.614-.316-5.318-.948-1.704-.632-3.106-1.429-4.205-2.391l-1.525,3.215c1.154,1.071,2.734,1.944,4.741,2.617,2.006.674,4.108,1.01,6.307,1.01,2.528,0,4.623-.377,6.286-1.134,1.663-.756,2.892-1.758,3.69-3.009.797-1.25,1.195-2.604,1.195-4.061,0-1.511-.316-2.748-.948-3.71-.633-.962-1.464-1.732-2.494-2.308Z"/>
      <rect class="cls-1" x="240.869" y=".33" width="4.122" height="28.857"/>
      <polygon class="cls-1" points="249.486 3.916 259.379 3.916 259.379 29.186 263.46 29.186 263.46 3.916 273.354 3.916 273.354 .33 249.486 .33 249.486 3.916"/>
      <polygon class="cls-1" points="281.969 16.283 296.439 16.283 296.439 12.779 281.969 12.779 281.969 3.916 298.212 3.916 298.212 .33 277.847 .33 277.847 29.186 298.789 29.186 298.789 25.6 281.969 25.6 281.969 16.283"/>
      <rect class="cls-1" x="316.556" y=".33" width="4.122" height="28.857"/>
      <path class="cls-1" d="M347.969,17.602c-.633-.962-1.464-1.732-2.494-2.308-1.031-.577-2.171-1.044-3.421-1.402-1.251-.357-2.494-.68-3.731-.969-1.237-.289-2.371-.611-3.401-.968s-1.869-.838-2.514-1.443c-.646-.604-.969-1.415-.969-2.432,0-.852.24-1.621.721-2.308.481-.687,1.243-1.237,2.288-1.649,1.044-.412,2.377-.619,3.999-.619,1.291,0,2.624.186,3.999.557,1.374.371,2.679.969,3.916,1.793l1.361-3.298c-1.21-.825-2.639-1.457-4.287-1.897-1.649-.439-3.312-.659-4.988-.659-2.529,0-4.611.378-6.246,1.134-1.636.756-2.844,1.759-3.628,3.009-.783,1.251-1.175,2.618-1.175,4.102,0,1.539.316,2.797.948,3.772.632.976,1.464,1.752,2.494,2.329,1.031.577,2.17,1.051,3.421,1.422,1.25.371,2.494.695,3.731.969,1.237.275,2.371.598,3.401.968s1.869.859,2.514,1.464.969,1.402.969,2.391c0,.852-.247,1.615-.742,2.288-.495.674-1.265,1.203-2.309,1.587-1.044.385-2.405.577-4.081.577-1.841,0-3.614-.316-5.318-.948-1.704-.632-3.106-1.429-4.205-2.391l-1.525,3.215c1.154,1.071,2.734,1.944,4.741,2.617,2.006.674,4.108,1.01,6.307,1.01,2.528,0,4.623-.377,6.286-1.134,1.663-.756,2.892-1.758,3.69-3.009.797-1.25,1.195-2.604,1.195-4.061,0-1.511-.316-2.748-.948-3.71Z"/>
    </g>
  </g>
</svg>