<?xml version="1.0" encoding="UTF-8"?>
<svg xmlns="http://www.w3.org/2000/svg" xmlns:xlink="http://www.w3.org/1999/xlink" viewBox="0 0 1003.493 1080">
  <defs>
    <style>
      .cls-1 {
        opacity: .5;
      }

      .cls-1, .cls-2, .cls-3 {
        fill: #243a74;
      }

      .cls-4 {
        fill: none;
      }

      .cls-5 {
        isolation: isolate;
      }

      .cls-2 {
        opacity: .3;
      }

      .cls-3 {
        opacity: .2;
      }

      .cls-6 {
        mix-blend-mode: overlay;
      }

      .cls-7 {
        clip-path: url(#clippath);
      }
    </style>
    <clipPath id="clippath">
      <rect class="cls-4" width="1003.493" height="1080"/>
    </clipPath>
  </defs>
  <g class="cls-5">
    <g id="Layer_2">
      <g id="Layer_1-2" data-name="Layer_1">
        <g class="cls-7">
          <g class="cls-6">
            <path class="cls-2" d="M-86.028,1107.455l25.82-25.819,25.819,25.819h5.102l-28.367-28.373L6.907,1014.52l64.667,64.668-28.274,28.268h5.102l25.726-25.726,25.721,25.726h5.096l-28.275-28.268,64.679-64.679,64.573,64.573-28.373,28.373h5.096l25.821-25.819,25.831,25.819h5.096l-28.373-28.373,64.667-64.668,64.679,64.668-28.375,28.373h5.108l25.821-25.819,25.819,25.819h5.084l-28.361-28.363,64.573-64.573,64.667,64.668-28.268,28.268h5.096l25.726-25.726,25.726,25.726h5.096l-28.268-28.268,64.667-64.668,64.562,64.562-28.374,28.373h5.096l25.82-25.819,25.819,25.819h5.096l-366.808-366.808-1.266,1.264-365.532,365.544h5.084ZM208.476,1076.528l-64.573-64.573,64.668-64.668,64.561,64.574-64.656,64.667ZM211.112,944.745l64.573-64.573,64.573,64.573-64.573,64.562-64.573-64.562ZM342.906,1076.54l-64.667-64.679,64.573-64.574,64.667,64.679-64.573,64.574ZM541.92,1011.966l-64.667,64.668-64.667-64.668,64.667-64.667,64.667,64.667ZM474.7,944.757l-64.667,64.667-64.679-64.679,64.667-64.679,64.679,64.691ZM407.479,877.524l-64.667,64.667-64.573-64.573,64.667-64.667,64.573,64.573ZM275.685,745.731l64.667,64.679-64.667,64.667-64.667-64.667,64.667-64.679ZM208.465,812.951l64.667,64.667-64.573,64.573-64.667-64.667,64.573-64.573ZM141.349,880.066l64.668,64.679-64.668,64.656-64.667-64.668,64.667-64.667ZM74.128,947.287l64.679,64.668-64.679,64.679-64.667-64.668,64.667-64.679Z"/>
            <polygon class="cls-2" points="776.104 1107.455 811.94 1071.619 847.776 1107.455 852.872 1107.455 814.494 1069.077 879.067 1004.492 943.746 1069.171 905.449 1107.455 910.546 1107.455 946.288 1071.713 982.03 1107.455 987.115 1107.455 948.831 1069.171 1003.493 1014.509 1003.493 1009.424 946.288 1066.617 881.621 1001.95 946.288 937.271 1003.493 994.475 1003.493 989.379 948.842 934.729 1003.493 880.066 1003.493 874.982 771.02 1107.455 776.104 1107.455"/>
            <path class="cls-3" d="M1003.493,523.485l-54.674-54.662,54.674-54.674v-5.073l-57.216,57.205-64.691-64.685,64.691-64.685,57.216,57.216v-5.078l-54.674-54.68,54.674-54.663v-5.096l-57.216,57.217-64.573-64.574,64.573-64.579,57.216,57.223v-5.096l-54.674-54.669,54.674-54.68v-5.072l-57.216,57.21-64.668-64.673,64.679-64.679,57.205,57.193v-5.073l-54.662-54.662,54.662-54.674v-5.079l-261.315,261.321,261.315,261.303v-5.084ZM879.056,135.46l64.679,64.673-64.574,64.579-64.679-64.673,64.574-64.579ZM747.261,267.265l64.691-64.685,64.667,64.673-64.689,64.679-64.668-64.667ZM814.482,334.475l64.668-64.679,64.585,64.573-64.679,64.685-64.574-64.579Z"/>
            <path class="cls-1" d="M1003.493,446.635l-.374-.376.374-.374v-2.706l-1.734,1.733-34.407-34.418,34.466-34.466,1.675,1.676v-2.718l-.317-.317.317-.315v-2.718l-1.675,1.676-34.466-34.466,34.418-34.418,1.723,1.721v-2.706l-.374-.374.374-.376v-2.705l-1.723,1.721-34.477-34.465,34.466-34.478,1.734,1.735v-2.706l-.374-.376.374-.374v-2.718l-1.734,1.735-34.407-34.419,34.466-34.465,1.675,1.675v-2.717l-.317-.317.317-.317v-2.717l-1.675,1.675-34.466-34.465,34.407-34.407,1.734,1.733v-2.717l-.374-.376.374-.374v-2.718l-182.111,182.11.68.679,181.43,181.43v-2.717ZM1000.412,303.067l-34.419,34.418-34.477-34.465,34.418-34.43,34.478,34.477ZM930.156,301.661l-34.406-34.418,34.418-34.419,34.407,34.419-34.419,34.418ZM1000.412,231.417l-34.478,34.466-34.418-34.419,34.477-34.465,34.419,34.418ZM965.992,125.349l34.466,34.466-34.466,34.465-34.465-34.465,34.465-34.466ZM930.168,161.175l34.465,34.465-34.465,34.466-34.466-34.466,34.466-34.465ZM894.344,196.999l34.465,34.465-34.418,34.419-34.466-34.466,34.419-34.418ZM824.088,267.243l34.477-34.466,34.466,34.466-34.466,34.465-34.477-34.465ZM859.914,303.067l34.477-34.466,34.418,34.419-34.477,34.465-34.418-34.418ZM895.691,338.844l34.465-34.477,34.477,34.477-34.465,34.466-34.477-34.466ZM931.515,374.668l34.477-34.465,34.466,34.465-34.466,34.466-34.477-34.466Z"/>
            <path class="cls-1" d="M1003.493-60.169l-22.552,22.552-54.509-54.504h-5.085l57.053,57.046-64.679,64.667-64.678-64.678,57.041-57.035h-5.073l-54.498,54.492-54.499-54.492h-5.084l57.029,57.035-64.679,64.685-64.573-64.573,57.145-57.146h-5.084l-54.604,54.604-54.603-54.604h-5.084l57.145,57.146-64.585,64.585-64.667-64.685,57.041-57.046h-5.084l-54.511,54.504-54.497-54.504h-5.085l57.053,57.046-64.691,64.679-64.667-64.679,57.041-57.046h-5.085l-54.509,54.504-54.499-54.504h-5.084l328.361,328.366L1003.493-55.091v-5.079ZM712.163-32.434l64.574,64.573-64.574,64.579-64.573-64.567,64.573-64.585ZM513.149,32.145l64.667-64.679,64.691,64.685-64.691,64.679-64.667-64.685ZM580.369,99.372l64.667-64.679,64.574,64.567-64.668,64.679-64.573-64.567ZM712.152,231.159l-64.679-64.679,64.689-64.679,64.668,64.679-64.679,64.679ZM779.373,163.939l-64.679-64.679,64.585-64.579,64.679,64.679-64.585,64.579ZM846.5,96.818l-64.679-64.679,64.691-64.684,64.667,64.678-64.679,64.685Z"/>
            <path class="cls-1" d="M1003.493,598.203v-5.096l-290.873-290.871-405.656,405.668,1.266,1.276,398.276,398.276h5.084l-63.648-63.659,64.668-64.679,64.689,64.679-63.671,63.659h5.096l284.769-284.769v-5.084l-22.083,22.083-64.679-64.679,64.573-64.573,22.188,22.188v-5.096l-19.634-19.634,19.634-19.634v-5.108l-22.188,22.188-64.573-64.561,64.667-64.668,22.095,22.095ZM911.647,506.34l-64.68,64.673-64.679-64.685,64.668-64.673,64.691,64.685ZM647.953,640.671l64.667-64.679,64.679,64.689-64.667,64.668-64.679-64.679ZM710.09,707.891l-64.679,64.679-64.679-64.679,64.679-64.679,64.679,64.679ZM779.853,643.225l64.667,64.667-64.667,64.679-64.667-64.679,64.667-64.667ZM715.162,573.45l64.574-64.574,64.689,64.679-64.573,64.574-64.691-64.679ZM712.62,570.907l-64.573-64.573,64.573-64.579,64.585,64.573-64.585,64.579ZM710.078,573.45l-64.667,64.679-64.573-64.585,64.667-64.668,64.573,64.574ZM642.857,640.671l-64.667,64.679-64.585-64.573,64.679-64.691,64.573,64.585ZM575.637,707.891l-64.573,64.573-64.573-64.573,64.573-64.573,64.573,64.573ZM578.179,710.445l64.679,64.679-64.573,64.573-64.667-64.679,64.561-64.573ZM645.411,777.666l64.667,64.679-64.573,64.573-64.667-64.679,64.573-64.573ZM647.953,775.124l64.679-64.691,64.667,64.679-64.667,64.679-64.679-64.667ZM779.853,777.654l64.562,64.573-64.679,64.679-64.562-64.561,64.679-64.691ZM782.406,775.112l64.667-64.667,64.562,64.561-64.679,64.667-64.55-64.561ZM782.394,640.671l64.573-64.573,64.68,64.679-64.574,64.573-64.679-64.679ZM844.415,439.113l-64.679,64.673-64.574-64.573,64.668-64.673,64.585,64.573ZM712.62,307.32l64.679,64.679-64.679,64.673-64.679-64.673,64.679-64.679ZM645.411,374.54l64.667,64.673-64.573,64.573-64.679-64.673,64.585-64.573ZM578.284,441.655l64.667,64.673-64.667,64.674-64.667-64.668,64.667-64.679ZM511.074,508.876l64.668,64.668-64.679,64.679-64.668-64.668,64.679-64.679ZM443.843,576.108l64.667,64.668-64.573,64.573-64.668-64.679,64.574-64.562ZM312.048,707.903l64.679-64.679,64.668,64.667-64.679,64.679-64.668-64.667ZM379.269,775.124l64.668-64.691,64.573,64.585-64.667,64.679-64.574-64.573ZM446.385,842.239l64.679-64.679,64.679,64.679-64.679,64.679-64.679-64.679ZM513.618,909.471l64.667-64.679,64.679,64.667-64.679,64.679-64.667-64.667ZM645.387,1041.242l-64.549-64.55,64.667-64.679,64.561,64.561-64.679,64.668ZM648.059,909.459l64.573-64.573,64.55,64.561-64.573,64.574-64.55-64.562ZM779.841,1041.253l-64.679-64.679,64.574-64.573,64.679,64.679-64.574,64.573ZM846.957,974.126l-64.668-64.679,64.668-64.679,64.691,64.679-64.691,64.679ZM978.868,842.239l-64.679,64.667-64.679-64.679,64.667-64.679,64.691,64.691ZM978.75,707.879l-64.573,64.573-64.561-64.561,64.573-64.573,64.561,64.561ZM914.189,638.222l-64.679-64.668,64.667-64.673,64.679,64.673-64.667,64.668Z"/>
          </g>
        </g>
      </g>
    </g>
  </g>
</svg>