<?xml version="1.0" encoding="UTF-8"?>
<svg id="Layer_2" xmlns="http://www.w3.org/2000/svg" viewBox="0 0 621.43 58.258">
  <defs>
    <style>
      .cls-1 {
        fill: #edaa36;
      }
    </style>
  </defs>
  <g id="Layer_1-2" data-name="Layer_1">
    <g>
      <path class="cls-1" d="M22.563,18.942c1.14-1.22,2.507-2.149,4.099-2.786s3.369-.955,5.332-.955c2.493,0,4.736.57,6.725,1.711s3.807,2.745,5.452,4.815l11.858-10.585c-2.759-3.608-6.247-6.367-10.465-8.278-4.219-1.91-9.061-2.865-14.525-2.865-4.457,0-8.584.703-12.377,2.109-3.794,1.407-7.083,3.41-9.869,6.009-2.786,2.601-4.949,5.678-6.487,9.233-1.54,3.555-2.308,7.481-2.308,11.779s.768,8.225,2.308,11.78c1.538,3.555,3.701,6.633,6.487,9.232,2.786,2.601,6.075,4.603,9.869,6.008,3.793,1.405,7.919,2.109,12.377,2.109,5.464,0,10.306-.968,14.525-2.905,4.218-1.935,7.706-4.682,10.465-8.237l-11.858-10.584c-1.645,2.069-3.463,3.675-5.452,4.814-1.99,1.143-4.232,1.711-6.725,1.711-1.963,0-3.74-.319-5.332-.954-1.592-.637-2.959-1.565-4.099-2.786-1.142-1.22-2.029-2.692-2.666-4.418-.637-1.724-.955-3.647-.955-5.77s.318-4.046.955-5.77c.637-1.724,1.524-3.196,2.666-4.417Z"/>
      <path class="cls-1" d="M110.628,8.237c-2.813-2.626-6.128-4.656-9.949-6.089-3.82-1.432-8.013-2.148-12.575-2.148-4.511,0-8.689.716-12.535,2.148-3.848,1.433-7.177,3.463-9.989,6.089-2.813,2.626-5.002,5.704-6.566,9.232-1.565,3.529-2.347,7.416-2.347,11.66,0,4.192.782,8.066,2.347,11.62,1.565,3.555,3.753,6.645,6.566,9.272,2.812,2.627,6.141,4.656,9.989,6.089,3.846,1.432,8.051,2.148,12.615,2.148,4.51,0,8.675-.717,12.496-2.148,3.82-1.433,7.136-3.462,9.949-6.089,2.811-2.627,5-5.717,6.566-9.272,1.565-3.554,2.348-7.427,2.348-11.62,0-4.244-.783-8.131-2.348-11.66-1.566-3.528-3.755-6.606-6.566-9.232ZM99.645,34.979c-.637,1.725-1.526,3.184-2.667,4.377-1.142,1.194-2.467,2.109-3.979,2.747-1.512.636-3.144.954-4.894.954s-3.383-.319-4.895-.954c-1.512-.637-2.839-1.553-3.979-2.747-1.142-1.194-2.029-2.652-2.666-4.377-.637-1.724-.955-3.673-.955-5.849s.318-4.125.955-5.849c.637-1.724,1.524-3.184,2.666-4.377,1.14-1.194,2.467-2.109,3.979-2.746s3.144-.955,4.895-.955,3.383.319,4.894.955c1.512.637,2.838,1.552,3.979,2.746,1.14,1.194,2.029,2.653,2.667,4.377.637,1.725.954,3.675.954,5.849s-.318,4.126-.954,5.849Z"/>
      <polygon class="cls-1" points="177.642 1.273 159.994 30.924 141.827 1.273 126.387 1.273 126.387 56.985 143.499 56.985 143.499 32.453 155.596 51.971 163.873 51.971 175.995 31.574 176.13 56.985 193.242 56.985 193.082 1.273 177.642 1.273"/>
      <rect class="cls-1" x="202.315" y="1.273" width="18.783" height="55.712"/>
      <polygon class="cls-1" points="266.782 26.606 245.611 1.273 230.171 1.273 230.171 56.985 248.477 56.985 248.477 31.652 269.647 56.985 285.087 56.985 285.087 1.273 266.782 1.273 266.782 26.606"/>
      <path class="cls-1" d="M314.534,18.942c1.167-1.22,2.587-2.149,4.258-2.786,1.671-.637,3.541-.955,5.611-.955,2.493,0,4.761.518,6.805,1.552,2.042,1.034,3.94,2.56,5.691,4.576l12.018-10.585c-2.813-3.449-6.381-6.101-10.705-7.959-4.325-1.857-9.246-2.786-14.764-2.786-4.616,0-8.848.703-12.695,2.109-3.847,1.407-7.176,3.41-9.988,6.009-2.813,2.601-4.988,5.678-6.526,9.233-1.54,3.555-2.308,7.481-2.308,11.779s.768,8.225,2.308,11.78c1.538,3.555,3.701,6.633,6.487,9.232,2.786,2.601,6.075,4.603,9.869,6.008,3.793,1.405,7.946,2.109,12.456,2.109,4.085,0,8.303-.611,12.655-1.83,4.349-1.22,8.223-2.972,11.62-5.254v-23.558h-16.316v14.104c-.212.085-.428.189-.637.263-2.017.717-4.087,1.074-6.208,1.074-2.018,0-3.834-.331-5.452-.995-1.619-.662-3.012-1.604-4.178-2.826-1.167-1.219-2.069-2.692-2.706-4.416-.637-1.724-.955-3.622-.955-5.691,0-2.175.318-4.112.955-5.81.637-1.697,1.538-3.156,2.706-4.377Z"/>
      <path class="cls-1" d="M419.871,27.378c-1.83-1.219-3.834-2.201-6.009-2.945-2.176-.742-4.365-1.325-6.566-1.75-2.203-.424-4.218-.822-6.049-1.194-1.83-.371-3.302-.836-4.417-1.393-1.114-.557-1.671-1.314-1.671-2.269,0-.637.225-1.219.676-1.751.45-.529,1.206-.954,2.269-1.273,1.06-.319,2.493-.477,4.297-.477,2.44,0,4.947.345,7.521,1.034,2.573.69,5.239,1.725,7.999,3.103l5.651-13.609c-2.919-1.644-6.209-2.865-9.869-3.661s-7.376-1.194-11.142-1.194c-5.731,0-10.519.849-14.366,2.546-3.848,1.699-6.739,3.967-8.675,6.805-1.938,2.838-2.905,5.982-2.905,9.431,0,2.972.557,5.452,1.671,7.441s2.587,3.595,4.417,4.816,3.847,2.203,6.049,2.944c2.201.745,4.39,1.342,6.566,1.791,2.175.452,4.178.875,6.009,1.273s3.302.889,4.417,1.474,1.671,1.38,1.671,2.388c0,.636-.239,1.181-.716,1.631-.478.452-1.233.796-2.269,1.035-1.034.238-2.455.358-4.258.358-3.078,0-6.247-.463-9.511-1.393-3.263-.928-6.222-2.161-8.874-3.701l-6.049,13.69c2.812,1.699,6.394,3.078,10.744,4.138,4.35,1.062,8.86,1.592,13.53,1.592,5.783,0,10.585-.863,14.406-2.587,3.82-1.724,6.697-4.006,8.635-6.844,1.936-2.838,2.905-5.955,2.905-9.352,0-2.918-.557-5.358-1.672-7.322-1.114-1.963-2.587-3.555-4.417-4.776Z"/>
      <path class="cls-1" d="M483.264,8.237c-2.813-2.626-6.128-4.656-9.949-6.089-3.82-1.432-8.013-2.148-12.575-2.148-4.511,0-8.689.716-12.535,2.148-3.848,1.433-7.177,3.463-9.989,6.089-2.813,2.626-5.002,5.704-6.566,9.232-1.565,3.529-2.347,7.416-2.347,11.66,0,4.192.782,8.066,2.347,11.62,1.565,3.555,3.753,6.645,6.566,9.272,2.812,2.627,6.141,4.656,9.989,6.089,3.846,1.432,8.051,2.148,12.615,2.148,4.51,0,8.675-.717,12.496-2.148,3.82-1.433,7.136-3.462,9.949-6.089,2.811-2.627,5-5.717,6.566-9.272,1.565-3.554,2.348-7.427,2.348-11.62,0-4.244-.783-8.131-2.348-11.66-1.566-3.528-3.755-6.606-6.566-9.232ZM472.281,34.979c-.637,1.725-1.526,3.184-2.667,4.377-1.142,1.194-2.467,2.109-3.979,2.747-1.512.636-3.144.954-4.894.954s-3.383-.319-4.895-.954c-1.512-.637-2.839-1.553-3.979-2.747-1.142-1.194-2.029-2.652-2.666-4.377-.637-1.724-.955-3.673-.955-5.849s.318-4.125.955-5.849c.637-1.724,1.524-3.184,2.666-4.377,1.14-1.194,2.467-2.109,3.979-2.746s3.144-.955,4.895-.955,3.383.319,4.894.955c1.512.637,2.838,1.552,3.979,2.746,1.14,1.194,2.029,2.653,2.667,4.377.637,1.725.954,3.675.954,5.849s-.318,4.126-.954,5.849Z"/>
      <path class="cls-1" d="M550.755,8.237c-2.813-2.626-6.128-4.656-9.949-6.089-3.82-1.432-8.013-2.148-12.575-2.148-4.511,0-8.689.716-12.535,2.148-3.848,1.433-7.177,3.463-9.989,6.089-2.813,2.626-5.002,5.704-6.566,9.232-1.565,3.529-2.347,7.416-2.347,11.66,0,4.192.782,8.066,2.347,11.62,1.565,3.555,3.753,6.645,6.566,9.272,2.812,2.627,6.141,4.656,9.989,6.089,3.846,1.432,8.051,2.148,12.615,2.148,4.51,0,8.675-.717,12.496-2.148,3.82-1.433,7.136-3.462,9.949-6.089,2.811-2.627,5-5.717,6.566-9.272,1.565-3.554,2.348-7.427,2.348-11.62,0-4.244-.783-8.131-2.348-11.66-1.566-3.528-3.755-6.606-6.566-9.232ZM539.772,34.979c-.637,1.725-1.526,3.184-2.667,4.377-1.142,1.194-2.467,2.109-3.979,2.747-1.512.636-3.144.954-4.894.954s-3.383-.319-4.895-.954c-1.512-.637-2.839-1.553-3.979-2.747-1.142-1.194-2.029-2.652-2.666-4.377-.637-1.724-.955-3.673-.955-5.849s.318-4.125.955-5.849c.637-1.724,1.524-3.184,2.666-4.377,1.14-1.194,2.467-2.109,3.979-2.746s3.144-.955,4.895-.955,3.383.319,4.894.955c1.512.637,2.838,1.552,3.979,2.746,1.14,1.194,2.029,2.653,2.667,4.377.637,1.725.954,3.675.954,5.849s-.318,4.126-.954,5.849Z"/>
      <polygon class="cls-1" points="603.124 1.273 603.124 26.606 581.953 1.273 566.513 1.273 566.513 56.985 584.819 56.985 584.819 31.652 605.989 56.985 621.43 56.985 621.43 1.273 603.124 1.273"/>
    </g>
  </g>
</svg>