<?xml version="1.0" encoding="UTF-8"?>
<svg id="Layer_2" xmlns="http://www.w3.org/2000/svg" viewBox="0 0 38.017 38.025">
  <defs>
    <style>
      .cls-1 {
        fill: #edaa36;
      }
    </style>
  </defs>
  <g id="Layer_1-2" data-name="Layer_1">
    <g>
      <g>
        <path class="cls-1" d="M19.012,13.391c-3.101,0-5.621,2.52-5.621,5.621s2.52,5.621,5.621,5.621,5.613-2.52,5.613-5.621-2.512-5.621-5.613-5.621ZM19.012,22.663c-2.011,0-3.651-1.64-3.651-3.651s1.64-3.643,3.651-3.643,3.643,1.631,3.643,3.643-1.631,3.651-3.643,3.651Z"/>
        <path class="cls-1" d="M22.477,0h-6.938C6.954,0,0,6.962,0,15.539v6.938c0,8.585,6.954,15.547,15.539,15.547h6.938c8.585,0,15.539-6.962,15.539-15.547v-6.938c0-8.577-6.954-15.539-15.539-15.539ZM29.883,23.519c-.048,1.171-.234,1.963-.509,2.657-.275.719-.654,1.333-1.26,1.938s-1.22.985-1.938,1.26c-.695.275-1.486.46-2.657.509-1.163.057-1.535.065-4.507.065s-3.344-.008-4.515-.065c-1.163-.048-1.955-.234-2.649-.509-.719-.275-1.333-.654-1.938-1.26-.614-.606-.985-1.22-1.26-1.938-.275-.695-.46-1.486-.509-2.657-.056-1.163-.073-1.535-.073-4.507s.016-3.344.073-4.507c.048-1.171.234-1.963.509-2.657.275-.719.646-1.333,1.26-1.938.606-.606,1.22-.985,1.938-1.26.695-.275,1.486-.46,2.649-.509,1.171-.056,1.543-.065,4.515-.065s3.344.008,4.507.065c1.171.048,1.963.234,2.657.509.719.275,1.333.654,1.938,1.26s.985,1.22,1.26,1.938c.275.695.46,1.486.509,2.657.057,1.163.065,1.535.065,4.507s-.008,3.344-.065,4.507Z"/>
      </g>
      <path class="cls-1" d="M26.16,13.173c0,.727-.581,1.316-1.308,1.316s-1.316-.59-1.316-1.316.59-1.316,1.316-1.316,1.308.59,1.308,1.316Z"/>
    </g>
  </g>
</svg>