<?xml version="1.0" encoding="UTF-8"?>
<svg id="Layer_2" xmlns="http://www.w3.org/2000/svg" viewBox="0 0 31.697 31.697">
  <defs>
    <style>
      .cls-1 {
        fill: #edaa36;
      }
    </style>
  </defs>
  <g id="Layer_1-2" data-name="Layer_1">
    <g>
      <path class="cls-1" d="M15.851,9.111c-2.133,0-3.874,1.741-3.878,3.878,0,2.137,1.737,3.867,3.878,3.867s3.878-1.733,3.878-3.87c-.004-2.133-1.745-3.874-3.878-3.874"/>
      <path class="cls-1" d="M18.74,0h-5.784C5.8,0,0,5.804,0,12.956v5.784c0,7.157,5.8,12.956,12.956,12.956h5.784c7.157,0,12.956-5.8,12.956-12.956v-5.784c0-7.153-5.8-12.956-12.956-12.956M21.238,17.874c-1.059,2.227-2.474,4.223-4.027,6.129-.306.373-.612.741-.929,1.102-.314.349-.553.353-.863-.004-1.921-2.223-3.682-4.561-4.957-7.227-.553-1.161-.965-2.365-1.169-3.639-.659-4.161,2.204-7.388,5.725-7.851,3.568-.463,6.964,2.129,7.415,5.686.043.318.051.635.063.874-.02,1.8-.529,3.396-1.259,4.929"/>
    </g>
  </g>
</svg>