<?xml version="1.0" encoding="UTF-8"?>
<svg id="Layer_2" xmlns="http://www.w3.org/2000/svg" viewBox="0 0 31.693 31.697">
  <defs>
    <style>
      .cls-1 {
        fill: #edaa36;
      }
    </style>
  </defs>
  <g id="Layer_1-2" data-name="Layer_1">
    <path class="cls-1" d="M18.74,0h-5.788C5.8,0,0,5.8,0,12.956v5.784c0,7.157,5.8,12.956,12.952,12.956h5.788c7.153,0,12.952-5.8,12.952-12.956v-5.784c0-7.157-5.8-12.956-12.952-12.956M21.885,23.411c-1.098.467-2.231.353-3.361.039-3.941-1.106-6.866-3.568-9.215-6.819-.776-1.078-1.474-2.184-1.792-3.494-.098-.4-.133-.808-.141-1.216-.012-1.388.533-2.537,1.518-3.49.306-.302.667-.463,1.098-.459.259.004.518.031.773.012.416-.035.674.173.823.518.494,1.149.969,2.302,1.447,3.451.098.247.043.478-.098.702-.314.494-.678.953-1.055,1.396-.227.274-.235.525-.059.827,1.361,2.286,3.255,3.945,5.733,4.929.337.133.612.082.843-.208.404-.51.824-1.012,1.227-1.525.31-.396.459-.463.929-.275,1.188.486,2.325,1.082,3.47,1.655.235.118.294.31.286.549-.047,1.753-.549,2.608-2.427,3.408"/>
  </g>
</svg>